<svg width="42" height="16" viewBox="0 0 42 16" fill="none" xmlns="http://www.w3.org/2000/svg">
<path d="M38.5732 8.03756C38.5733 8.73381 39.1314 9.29852 39.8205 9.29872C40.5098 9.29872 41.0687 8.73393 41.0688 8.03756C41.0688 7.34112 40.5099 6.7764 39.8205 6.7764V5.83513L40.0433 5.84616C41.1422 5.95877 41.9998 6.897 41.9998 8.03756C41.9997 9.25394 41.0238 10.24 39.8205 10.24L39.5978 10.229C38.4993 10.116 37.6423 9.17781 37.6422 8.03756C37.6422 6.82124 38.6174 5.83533 39.8205 5.83513V6.7764C39.1314 6.77661 38.5732 7.34125 38.5732 8.03756Z" fill="#A6A09B"/>
<path d="M5.24235 7.99867L16.7139 1.83352L16.9557 2.05321C18.8526 3.76985 20.4393 4.9125 22.2424 5.73925C24.0488 6.56743 26.0989 7.09035 28.9382 7.53355V8.46379C26.0989 8.90699 24.0488 9.42991 22.2424 10.2581C20.4393 11.0848 18.8526 12.2275 16.9557 13.9441L16.7139 14.1638L5.24235 7.99867ZM16.5812 13.0268C18.4158 11.391 20.0199 10.2445 21.8587 9.40139C23.1682 8.80103 24.5842 8.36168 26.2672 7.99867C24.5844 7.63569 23.1681 7.19715 21.8587 6.59687C20.0199 5.75379 18.4149 4.60726 16.5803 2.97151L7.2261 7.99867L16.5812 13.0268Z" fill="#A6A09B"/>
<path d="M7.41693 11.6499L0.000147611 8.01256L7.40329 4.1243L7.62512 4.25758C10.5151 5.98105 11.7291 6.80428 14.8837 7.53916L14.8992 8.45286C13.116 8.93525 12.0789 9.27673 11.1344 9.71678C10.1853 10.159 9.31704 10.7062 7.86696 11.6251L7.64876 11.7629L7.41693 11.6499ZM7.59239 10.6893C8.90546 9.85786 9.78312 9.3098 10.7444 8.86191C11.4113 8.55121 12.1136 8.29195 13.0227 8.01256C10.891 7.34805 9.58944 6.52484 7.37511 5.20069L2.07572 7.98406L7.59239 10.6893Z" fill="#A6A09B"/>
<path d="M29.448 1.5293C30.5237 0.180001 32.5273 -0.241971 34.1433 0.12793C34.964 0.31592 35.7373 0.717602 36.2683 1.3623C36.809 2.01882 37.0674 2.89019 36.907 3.93359C36.8928 4.06556 36.8659 4.19446 36.8289 4.31934C36.8241 4.33904 36.8202 4.3591 36.8152 4.37891L36.8093 4.37793C36.5517 5.16698 35.8738 5.81764 35.1335 6.11621C34.3618 6.42739 33.3997 6.39297 32.7595 5.57617C32.3051 4.9961 32.2755 4.25088 32.6316 3.67383C32.9901 3.09325 33.6886 2.75234 34.5554 2.82617L34.4773 3.76465C33.8959 3.71512 33.5633 3.94173 33.4207 4.17285C33.276 4.40762 33.2757 4.71883 33.489 4.99121C33.7941 5.3805 34.2651 5.45332 34.7888 5.24219C35.3226 5.02688 35.783 4.55403 35.9343 4.05762C35.9547 3.97004 35.972 3.88455 35.9851 3.80176C35.986 3.7911 35.9855 3.78015 35.9861 3.76953L35.989 3.77051C36.1052 2.9861 35.9086 2.39721 35.5525 1.96484C35.184 1.51752 34.6126 1.20054 33.9373 1.0459C32.5608 0.730872 30.964 1.12749 30.1726 2.12012C29.3057 3.20795 29.1475 4.41848 29.6394 5.56445C29.9145 6.2049 30.5911 6.74713 31.2585 7.02441C31.5779 7.15703 32.0925 7.28345 32.6541 7.37695C33.2098 7.46947 33.775 7.52374 34.1824 7.52734V7.52832H36.488C36.488 7.99873 36.488 8.4693 36.488 8.46973H34.157C33.7523 8.47535 33.1994 8.52963 32.655 8.62109C32.0936 8.71547 31.5784 8.84278 31.2585 8.97559C30.5911 9.25287 29.9145 9.7951 29.6394 10.4355C29.1475 11.5815 29.3057 12.7921 30.1726 13.8799C30.964 14.8725 32.5608 15.2691 33.9373 14.9541C34.6126 14.7995 35.184 14.4825 35.5525 14.0352C35.9084 13.603 36.1049 13.0144 35.989 12.2305H35.9861C35.9856 12.2202 35.9859 12.2095 35.9851 12.1992C35.9721 12.1164 35.9546 12.0309 35.9343 11.9434C35.7833 11.4466 35.3229 10.9733 34.7888 10.7578C34.2651 10.5467 33.7941 10.6195 33.489 11.0088C33.2757 11.2812 33.276 11.5924 33.4207 11.8271C33.5633 12.0583 33.8959 12.2849 34.4773 12.2354L34.5554 13.1738C33.6886 13.2477 32.9901 12.9067 32.6316 12.3262C32.2755 11.7491 32.3051 11.0039 32.7595 10.4238C33.3997 9.60703 34.3618 9.57261 35.1335 9.88379C35.8741 10.1825 36.5519 10.8336 36.8093 11.623L36.8152 11.6211C36.8224 11.6495 36.829 11.6779 36.8357 11.7061V11.709C36.8686 11.8251 36.8938 11.9443 36.907 12.0664C37.0674 13.1098 36.809 13.9812 36.2683 14.6377C35.7373 15.2824 34.964 15.6841 34.1433 15.8721C32.5273 16.242 30.5237 15.82 29.448 14.4707C28.3776 13.1276 28.1469 11.5482 28.7849 10.0615C29.1879 9.12284 30.0985 8.43946 30.905 8.10449C30.9931 8.0679 31.0899 8.03356 31.1921 8C31.0899 7.96651 30.9932 7.93211 30.905 7.89551C30.0985 7.56054 29.1879 6.87716 28.7849 5.93848C28.1469 4.4518 28.3776 2.87235 29.448 1.5293Z" fill="#A6A09B"/>
</svg>
